<svg width="171" height="52" viewBox="0 0 171 52" fill="none" xmlns="http://www.w3.org/2000/svg">
<path fill-rule="evenodd" clip-rule="evenodd" d="M158.443 27.2233H164.59L170.345 38.7573H166.156L165.06 36.8155H157.934L156.838 38.7573H152.649L158.443 27.2233ZM128.416 29.9417V30.7961V35.9223V38.7573H132.018V35.9223V28.4272V27.2233H126.146L119.999 35.767C119.96 35.8835 119.921 35.9612 119.843 36.0777V35.1845V31.068V27.2233H116.241V31.068V37.9029V38.7573H122.113L128.26 30.2136C128.338 30.1359 128.377 30.0194 128.416 29.9417ZM161.81 29.8252H161.262L159.305 33.8252H163.728L161.81 29.8252ZM136.05 27.2233H139.652V31.2621H141.531L145.603 27.2233H150.535L144.702 32.7379L151.279 38.7961H146.072L141.531 34.2913H139.652V38.7961H136.05V27.2233ZM97.9974 27.2233H101.599V31.2621H109.351V27.2233H112.952V38.7573H109.351V34.2524H101.599V38.7573H97.9974V27.2233ZM79.8715 27.1845L85.1957 32.8544L79.8715 38.7573H84.6868L88.2102 34.8738L91.7336 38.7573H96.5489L91.2247 32.8544L96.5489 27.1845H91.577L88.2102 30.9126L84.8434 27.1845H79.8715ZM65.3864 38.7573V27.1845H77.9532V29.9806H68.9881V31.6116H77.5617V34.4078H68.9881V36H77.9532V38.7961H65.3864V38.7573ZM49.3745 30.1748V27.1845H63.2332V30.1748H58.1047V38.7573H54.503V30.1748H49.3745Z" fill="#2A5275"/>
<path fill-rule="evenodd" clip-rule="evenodd" d="M149.674 10.0583V5.5534H170.384V10.0194H162.711V22.835H157.347V10.0194H149.674V10.0583ZM71.2587 5.63107V22.9126H76.6221V10.7961L83.6689 22.9126H88.0536L94.6306 10.7961V22.9126H99.3285L101.403 15.4563L99.6025 15.4175L101.677 5.63107H90.8723L86.2919 15.301H85.4698L80.8893 5.63107H71.2587ZM59.5923 18.9903C62.1762 18.9903 63.6638 18.9515 64.0553 18.8738C64.4468 18.7961 64.6817 18.4854 64.6817 17.9417C64.6817 17.2816 64.4076 16.8544 63.8204 16.699C63.2332 16.5437 61.8238 16.4272 59.5923 16.4272C55.1294 16.4272 52.3106 16.1165 51.1362 15.4563C49.9617 14.7961 49.3745 13.2039 49.3745 10.6796C49.3745 8.31068 50.1183 6.83495 51.6451 6.17476C52.8196 5.6699 55.4034 5.43689 59.4357 5.43689C63.0374 5.43689 65.3081 5.51456 66.2476 5.70874C68.0485 6.05825 69.1447 7.3398 69.497 9.59223H59.5532H59.4357C57.0085 9.59223 55.6383 9.63107 55.2468 9.70874C54.8553 9.78641 54.6987 10.1359 54.6987 10.6796C54.6987 11.2621 55.0119 11.6505 55.6383 11.8447C56.2647 12.0388 57.5566 12.1165 59.5532 12.1165C63.977 12.1165 66.7957 12.466 68.0876 13.165C69.3796 13.8641 70.0059 15.4563 70.0059 17.9417C70.0059 20.233 69.3013 21.7087 67.8527 22.3689C66.6 22.9126 63.8596 23.1845 59.514 23.1845C56.1864 23.1845 54.0332 23.1068 53.0545 22.9515C51.5276 22.7184 50.4706 22.2136 49.9225 21.3592C49.5702 20.8155 49.3353 20.0388 49.1787 18.9903H59.3966H59.5923ZM108.568 5.63107H117.963L126.576 22.8738H120.312L118.668 19.9612H108.059L106.414 22.8738H100.151L100.19 22.7961L107.315 12.9709L104.066 12.7767L108.568 5.63107ZM113.735 9.51456H112.913L110.016 15.4951H116.632L113.735 9.51456ZM127.281 5.5534H142.862C144.78 5.5534 146.151 5.90291 146.934 6.60194C147.795 7.3398 148.226 8.69903 148.226 10.6019C148.226 12.0777 148.03 13.2039 147.677 13.9029C147.325 14.6019 146.699 15.1456 145.798 15.4951C146.777 15.9223 147.403 16.3495 147.717 16.7379C148.03 17.165 148.186 17.9029 148.186 18.9903V22.8738H142.823V19.767C142.823 19.301 142.705 18.9515 142.471 18.6408C142.157 18.2524 141.688 18.0194 141.1 18.0194H132.644V22.835H127.281V5.5534ZM132.605 10.0583V13.5922H141.218C141.805 13.5922 142.236 13.4757 142.471 13.2039C142.705 12.9709 142.862 12.5049 142.862 11.8447C142.862 11.1845 142.745 10.7184 142.471 10.4466C142.197 10.1748 141.805 10.0583 141.218 10.0583H132.605Z" fill="#4878A6"/>
<path fill-rule="evenodd" clip-rule="evenodd" d="M3.13957 9.35922L9.95149 5.47573L19.1906 0.194174L28.4298 5.47573L37.6689 10.7573V16.8932L32.3055 13.8252L19.1906 6.29126L8.50298 12.4272L3.13957 9.35922ZM0.712341 13.5146V19.8058L19.5038 30.5631L24.7498 27.2621L0.712341 13.5146Z" fill="#4878A6"/>
<path fill-rule="evenodd" clip-rule="evenodd" d="M35.2417 33.2816L28.4298 37.165L19.1906 42.4466L9.95149 37.165L0.712341 31.8835V25.7476L6.07575 28.8155L19.1906 36.3107L29.8783 30.1748L35.2417 33.2816ZM23.6928 14.7961L19.3081 12.2719L14.1404 15.2233L17.4289 17.1262L36.2204 27.8835L37.7081 28.7379V22.7961L36.2204 21.9418L23.6928 14.7961Z" fill="#2A5275"/>
<path fill-rule="evenodd" clip-rule="evenodd" d="M5.68426 47.0291L5.33192 47.9223C4.82299 47.6505 4.2749 47.4951 3.68767 47.4951C3.10043 47.4951 2.63064 47.6505 2.31745 47.9223C1.96511 48.1942 1.80852 48.5825 1.80852 49.0485C1.80852 49.5534 2.00426 49.9417 2.3566 50.2524C2.74809 50.5631 3.21788 50.7184 3.84426 50.7184C4.54894 50.7184 5.13618 50.5243 5.68426 50.1748V51.2233C5.13618 51.4951 4.47064 51.6505 3.80511 51.6505C2.90469 51.6505 2.16086 51.4175 1.61277 50.9515C1.06469 50.4854 0.751495 49.8641 0.751495 49.0874C0.751495 48.3495 1.02554 47.767 1.57362 47.301C2.12171 46.835 2.82639 46.6019 3.72681 46.6019C4.3532 46.6019 5.01873 46.7573 5.68426 47.0291ZM7.05448 47.4951H10.6953V48.3495H8.0332V49.0485H10.4996L10.1472 49.9029H8.0332V50.6408H10.8911V51.4951H7.01533V47.4951H7.05448ZM11.7132 47.4951H15.9413V48.3883H14.3362V51.4951H13.3183V48.3883H11.7132V47.4951ZM16.9592 47.4951H17.977V50.6408H19.543C19.7387 50.6408 19.8953 50.6019 20.0128 50.5243C20.1302 50.4466 20.1694 50.3301 20.1694 50.1748C20.1694 50.0194 20.1302 49.9029 20.0128 49.8252C19.8953 49.7476 19.7387 49.7087 19.543 49.7087H18.2511L18.6034 48.8544H19.543C20.0519 48.8544 20.4434 48.9709 20.7175 49.2039C20.9915 49.4369 21.1481 49.7476 21.1481 50.1748C21.1481 50.6019 20.9915 50.9126 20.7175 51.1456C20.4434 51.3786 20.0519 51.4951 19.543 51.4951H16.9592V47.4951ZM25.063 47.4951H26.2375L27.7643 49.8252L29.2519 47.4951H30.4264V51.534H29.4085V48.9709L27.9992 51.1068H27.4119L26.0026 49.0097V51.5728H25.0238V47.4951H25.063ZM32.5013 51.534H31.4443L33.48 47.534H34.6545L36.6902 51.534H35.5941L35.2026 50.7961H32.8536L32.5013 51.534ZM34.0281 48.3495L33.206 49.9806H34.8502L34.0281 48.3495ZM37.7081 47.4951H40.9183V48.3495H38.726V51.4951H37.7081V47.4951ZM42.0145 51.534H40.9575L42.9932 47.534H44.1677L46.2034 51.534H45.1072L44.7158 50.7961H42.3668L42.0145 51.534ZM43.5413 48.3495L42.7192 49.9806H44.3634L43.5413 48.3495ZM47.0255 47.767C47.7302 47.4951 48.4349 47.3786 49.0613 47.3786C49.6877 47.3786 50.1575 47.4951 50.4706 47.6893C50.823 47.8835 50.9796 48.1942 50.9796 48.5437C50.9796 48.932 50.7838 49.2427 50.4315 49.3981V49.4369C50.8621 49.6311 51.097 49.9417 51.097 50.4078C51.097 50.7961 50.9013 51.1068 50.5489 51.3398C50.1966 51.5728 49.6485 51.6505 48.983 51.6505C48.3958 51.6505 47.8085 51.534 47.1821 51.3398V50.3301C47.417 50.4466 47.6911 50.5631 48.0434 50.6408C48.3566 50.7184 48.7089 50.7573 49.0221 50.7573C49.3353 50.7573 49.5702 50.7184 49.766 50.6408C49.9617 50.5631 50.04 50.4466 50.04 50.2913C50.04 50.0194 49.7268 49.9029 49.1004 49.9029H47.5736L47.926 49.0485H49.1004C49.6877 49.0485 50.0009 48.932 50.0009 48.6602C50.0009 48.3884 49.6877 48.233 49.0613 48.233C48.474 48.233 47.926 48.3495 47.3779 48.5825L47.0255 47.767ZM52.3889 47.4951H53.4068V50.1748L55.7949 47.4951H56.8128V51.534H55.7949V48.8544L53.4068 51.534H52.3889V47.4951ZM58.457 47.4951H59.4749V49.0097H61.863V47.4951H62.8809V51.534H61.863V49.9029H59.4749V51.534H58.457V47.4951ZM66.8349 47.4175C67.6179 47.4175 68.2834 47.6116 68.7532 48C69.223 48.3883 69.497 48.8932 69.497 49.5146C69.497 50.1359 69.2621 50.6796 68.7532 51.068C68.2834 51.4563 67.6179 51.6505 66.8349 51.6505C66.0519 51.6505 65.3864 51.4563 64.9166 51.068C64.4468 50.6796 64.2119 50.1748 64.2119 49.5146C64.2119 48.8932 64.4468 48.3883 64.9166 48C65.4255 47.6116 66.0519 47.4175 66.8349 47.4175ZM65.6604 48.5825C65.3472 48.8155 65.2298 49.1262 65.2298 49.5146C65.2298 49.9029 65.3864 50.2136 65.6604 50.4466C65.9736 50.6796 66.3651 50.7961 66.8349 50.7961C67.3047 50.7961 67.6962 50.6796 68.0094 50.4466C68.3226 50.2136 68.4792 49.9029 68.4792 49.5146C68.4792 49.1262 68.3226 48.8544 68.0094 48.6214C67.6962 48.3883 67.3047 48.2718 66.8349 48.2718C66.3651 48.233 65.9736 48.3495 65.6604 48.5825ZM70.8672 47.4951H73.6077C74.1166 47.4951 74.4689 47.5728 74.743 47.767C75.017 47.9223 75.1345 48.1942 75.1345 48.5049C75.1345 48.8544 74.9779 49.165 74.7038 49.3592V49.3981C75.0953 49.6311 75.2911 49.9417 75.2911 50.3689C75.2911 50.7573 75.1736 51.0291 74.8604 51.2233C74.5864 51.4175 74.1949 51.534 73.686 51.534H70.8672V47.4951ZM71.8851 48.3883V50.6796H73.7251C73.9209 50.6796 74.0383 50.6408 74.1558 50.5631C74.2732 50.4854 74.3123 50.4078 74.3123 50.2913C74.3123 50.1748 74.2732 50.0583 74.1558 50.0194C74.0383 49.9417 73.9209 49.9029 73.7251 49.9029H72.1592L72.5115 49.0485H73.7251C73.8817 49.0485 73.96 49.0097 74.0775 48.9709C74.1558 48.8932 74.1949 48.8155 74.1949 48.7379C74.1949 48.6214 74.1558 48.5437 74.0775 48.5049C73.9992 48.466 73.8817 48.4272 73.7251 48.4272H71.8851V48.3883ZM79.1668 47.4951H81.9072C82.4162 47.4951 82.7685 47.5728 83.0426 47.767C83.3166 47.9223 83.4341 48.1942 83.4341 48.5049C83.4341 48.8544 83.2775 49.165 83.0034 49.3592V49.3981C83.3949 49.6311 83.5906 49.9417 83.5906 50.3689C83.5906 50.7573 83.4732 51.0291 83.16 51.2233C82.886 51.4175 82.4945 51.534 81.9855 51.534H79.1668V47.4951ZM80.1847 48.3883V50.6796H82.0247C82.2204 50.6796 82.3379 50.6408 82.4553 50.5631C82.5728 50.4854 82.6119 50.4078 82.6119 50.2913C82.6119 50.1748 82.5728 50.0583 82.4553 50.0194C82.3379 49.9417 82.2204 49.9029 82.0247 49.9029H80.4587L80.8111 49.0485H82.0247C82.1813 49.0485 82.2596 49.0097 82.377 48.9709C82.4553 48.8932 82.4945 48.8155 82.4945 48.7379C82.4945 48.6214 82.4553 48.5437 82.377 48.5049C82.2987 48.466 82.1813 48.4272 82.0247 48.4272H80.1847V48.3883ZM92.2426 47.0291L91.8902 47.9223C91.3813 47.6505 90.8332 47.4951 90.246 47.4951C89.6587 47.4951 89.1889 47.6505 88.8758 47.9223C88.5234 48.1942 88.3668 48.5825 88.3668 49.0485C88.3668 49.5534 88.5626 49.9417 88.9149 50.2524C89.3064 50.5631 89.7762 50.7184 90.4026 50.7184C91.1072 50.7184 91.6945 50.5243 92.2426 50.1748V51.2233C91.6945 51.4951 91.0289 51.6505 90.3634 51.6505C89.463 51.6505 88.7192 51.4175 88.1711 50.9515C87.623 50.4854 87.3098 49.8641 87.3098 49.0874C87.3098 48.3495 87.5838 47.767 88.1319 47.301C88.68 46.835 89.3847 46.6019 90.2851 46.6019C90.9115 46.6019 91.577 46.7573 92.2426 47.0291ZM94.0434 51.534H92.9864L95.0221 47.534H96.1966L98.2323 51.534H97.1362L96.7447 50.7961H94.3958L94.0434 51.534ZM95.5702 48.3495L94.7481 49.9806H96.3924L95.5702 48.3495ZM99.2502 47.4951H100.268V49.0097H102.656V47.4951H103.674V51.534H102.617V49.9029H100.268V51.534H99.2502V47.4951ZM108.294 47.4951H109.468L107.746 49.3204L109.664 51.4951H108.372L106.532 49.3592L108.294 47.4951ZM105.279 47.4951H106.297V51.534H105.279V47.4951ZM110.094 47.4951H114.323V48.3883H112.717V51.4951H111.7V48.3883H110.094V47.4951ZM114.597 49.7087V48.932H117.18V49.7087H114.597ZM118.59 46.7184H123.483V51.534H122.426V47.6505H119.608V51.534H118.551V46.7184H118.59ZM125.284 47.4951H128.925V48.3495H126.263V49.0485H128.729L128.377 49.9029H126.263V50.6408H129.121V51.4951H125.245V47.4951H125.284ZM129.943 47.4951H134.171V48.3883H132.566V51.4951H131.548V48.3883H129.943V47.4951ZM135.189 47.4951H138.83V48.3495H136.168V49.0485H138.634L138.282 49.9029H136.168V50.6408H139.026V51.4951H135.15V47.4951H135.189ZM140.474 47.4951H143.058C143.567 47.4951 143.958 47.6117 144.232 47.8447C144.506 48.0777 144.663 48.4272 144.663 48.8155C144.663 49.2427 144.506 49.5534 144.232 49.7864C143.958 50.0194 143.567 50.1359 143.058 50.1359H141.766L142.157 49.2816H143.175C143.332 49.2816 143.449 49.2427 143.528 49.165C143.606 49.0874 143.645 48.9709 143.645 48.8155C143.645 48.6602 143.606 48.5437 143.489 48.466C143.41 48.3884 143.254 48.3495 143.097 48.3495H141.492V51.4951H140.474V47.4951ZM145.955 47.4951H149.831V48.3495H146.973V50.6408H148.813C149.204 50.6408 149.439 50.5243 149.439 50.2524C149.439 50.1359 149.4 50.0194 149.283 49.9417C149.165 49.8641 149.009 49.8252 148.813 49.8252H147.247L147.599 48.9709H148.774C149.283 48.9709 149.674 49.0874 149.948 49.3204C150.222 49.5534 150.379 49.8641 150.379 50.2524C150.379 50.6408 150.222 50.9515 149.948 51.1845C149.674 51.4175 149.283 51.534 148.774 51.534H145.955V47.4951ZM153.55 51.534H152.493L153.354 50.0194L152.845 50.0971L151.123 47.534H152.258L153.589 49.5534L154.724 47.534H155.82L153.55 51.534ZM156.799 47.4951H159.383C159.892 47.4951 160.283 47.6117 160.557 47.8447C160.832 48.0777 160.988 48.4272 160.988 48.8155C160.988 49.2427 160.832 49.5534 160.557 49.7864C160.283 50.0194 159.892 50.1359 159.383 50.1359H158.091L158.483 49.2816H159.5C159.657 49.2816 159.774 49.2427 159.853 49.165C159.931 49.0874 159.97 48.9709 159.97 48.8155C159.97 48.6602 159.931 48.5437 159.814 48.466C159.735 48.3884 159.579 48.3495 159.422 48.3495H157.817V51.4951H156.799V47.4951ZM162.28 47.4951H165.49V48.3495H163.298V51.4951H162.28V47.4951ZM166.508 47.4951H170.149V48.3495H167.487V49.0485H169.953L169.601 49.9029H167.487V50.6408H170.345V51.4951H166.469V47.4951H166.508Z" fill="#4878A6"/>
</svg>
